Coordinates
version=1
nRows=19
nColumns=34
inDegrees=no

Units are S.I. units (second, meters, Newtons, ...)
If the header above contains a line with 'inDegrees', this indicates whether rotational values are in degrees (yes) or radians (no).

endheader
time	pelvis_tilt	pelvis_list	pelvis_rotation	pelvis_tx	pelvis_ty	pelvis_tz	hip_flexion_r	hip_adduction_r	hip_rotation_r	knee_angle_r	ankle_angle_r	subtalar_angle_r	mtp_angle_r	hip_flexion_l	hip_adduction_l	hip_rotation_l	knee_angle_l	ankle_angle_l	subtalar_angle_l	mtp_angle_l	lumbar_extension	lumbar_bending	lumbar_rotation	arm_flex_r	arm_add_r	arm_rot_r	elbow_flex_r	pro_sup_r	arm_flex_l	arm_add_l	arm_rot_l	elbow_flex_l	pro_sup_l
5.92	-0.771132	0.00877958	-0.079936	-0.333599	0.577633	-0.618459	1.93019	-0.319567	-0.102133	1.763	0.721634	0.0389308	-0.0994161	1.9854	-0.456664	0.0302081	1.77142	0.702838	0.174156	-0.0994729	-0.0340702	-0.000674627	-0.0017662	1.11656	-0.530852	0.807702	2.37186	1.96341	1.22005	-0.517297	0.994204	2.27195	2.09188
5.93	-0.772536	0.00937123	-0.0797449	-0.333746	0.578628	-0.618518	1.92994	-0.318484	-0.10172	1.75954	0.719958	0.0370896	-0.0994161	1.98409	-0.455432	0.0286199	1.76785	0.701353	0.171705	-0.0994728	-0.0314329	-0.000656698	-0.0018208	1.11469	-0.533509	0.806054	2.37241	1.96139	1.21924	-0.519324	0.993204	2.27188	2.08823
5.94	-0.773833	0.00991505	-0.0796136	-0.333915	0.579571	-0.618586	1.9297	-0.317471	-0.101392	1.75626	0.718348	0.0354485	-0.0994161	1.98287	-0.454299	0.0271468	1.76445	0.699945	0.169283	-0.0994728	-0.0289742	-0.000608672	-0.00171068	1.11301	-0.536108	0.804536	2.37272	1.95954	1.21867	-0.521357	0.992133	2.27173	2.08434
5.95	-0.775023	0.0103979	-0.0795402	-0.334106	0.580458	-0.618665	1.92949	-0.316565	-0.101182	1.75319	0.716819	0.0340338	-0.099416	1.98176	-0.453273	0.0258176	1.76127	0.698625	0.166969	-0.0994728	-0.0266997	-0.000509177	-0.00144469	1.11154	-0.538554	0.80312	2.3728	1.95805	1.21833	-0.523377	0.991024	2.27151	2.08061
5.96	-0.776109	0.0108195	-0.0795111	-0.334316	0.581282	-0.618757	1.92931	-0.3158	-0.101096	1.75035	0.715379	0.0328493	-0.099416	1.98079	-0.45235	0.0246333	1.75833	0.697404	0.164834	-0.0994727	-0.0246007	-0.000350415	-0.00105012	1.11028	-0.540767	0.801787	2.37268	1.95709	1.21818	-0.525367	0.989896	2.2712	2.07761
5.97	-0.777101	0.0111883	-0.0795056	-0.334546	0.582038	-0.618863	1.92919	-0.315205	-0.101116	1.74773	0.714034	0.0318808	-0.0994159	1.97994	-0.451527	0.0235735	1.75562	0.696294	0.162942	-0.0994727	-0.0226569	-0.000135378	-0.000566038	1.10922	-0.542694	0.800523	2.37237	1.95676	1.21818	-0.527303	0.988756	2.27077	2.07597
5.98	-0.77801	0.0115166	-0.079502	-0.334797	0.58272	-0.61898	1.92914	-0.314793	-0.101212	1.74536	0.712791	0.031106	-0.0994159	1.97924	-0.450805	0.0226049	1.75318	0.695308	0.161343	-0.0994726	-0.0208439	0.000127066	-3.50099e-05	1.10836	-0.544304	0.799326	2.3719	1.95708	1.21828	-0.529159	0.9876	2.27017	2.07622
5.99	-0.778844	0.0118154	-0.0794822	-0.335067	0.583324	-0.619104	1.92917	-0.314569	-0.101353	1.74324	0.711658	0.0305078	-0.0994159	1.97868	-0.450186	0.0216922	1.751	0.694452	0.160067	-0.0994726	-0.0191418	0.000426033	0.000502653	1.10767	-0.545591	0.798204	2.3713	1.95798	1.21842	-0.530905	0.986434	2.2694	2.07851
6	-0.779606	0.0120914	-0.079434	-0.335353	0.58385	-0.619231	1.9293	-0.31453	-0.101514	1.74136	0.710648	0.0300848	-0.0994158	1.97827	-0.449676	0.0208083	1.74908	0.693727	0.15913	-0.0994725	-0.0175408	0.000752314	0.00101264	1.10713	-0.546569	0.797178	2.37061	1.95919	1.21855	-0.532519	0.985302	2.2685	2.08232
6.01	-0.780294	0.0123436	-0.079353	-0.33565	0.584299	-0.619359	1.92951	-0.314668	-0.101681	1.73973	0.709772	0.0298542	-0.0994158	1.97799	-0.449278	0.0199424	1.74742	0.693127	0.158524	-0.0994725	-0.0160408	0.00110326	0.00146961	1.10673	-0.547267	0.796275	2.36989	1.96046	1.21862	-0.533984	0.98425	2.26754	2.08684
6.02	-0.7809	0.0125629	-0.0792405	-0.335956	0.58467	-0.619487	1.92979	-0.314975	-0.101852	1.73834	0.709039	0.0298475	-0.0994158	1.97784	-0.448986	0.0191012	1.74602	0.692637	0.158223	-0.0994724	-0.0146509	0.00148315	0.00185789	1.10645	-0.547721	0.795514	2.36918	1.9616	1.21858	-0.535282	0.983301	2.26658	2.09132
6.03	-0.781411	0.0127357	-0.0790998	-0.33627	0.584968	-0.619613	1.93011	-0.315438	-0.102028	1.73722	0.70845	0.0301017	-0.0994157	1.97782	-0.448789	0.0183028	1.74487	0.69224	0.15818	-0.0994724	-0.0133891	0.00189857	0.00216996	1.10627	-0.547963	0.794899	2.36851	1.96248	1.21838	-0.536396	0.982449	2.26569	2.09519
6.04	-0.781808	0.0128489	-0.078934	-0.336591	0.585196	-0.619737	1.93046	-0.31604	-0.102207	1.73635	0.708005	0.0306491	-0.0994157	1.9779	-0.448675	0.0175674	1.74396	0.69192	0.158352	-0.0994723	-0.012281	0.00235311	0.00240385	1.10619	-0.548008	0.794413	2.36792	1.96305	1.218	-0.537317	0.981654	2.26487	2.09819
6.05	-0.782068	0.0128936	-0.0787443	-0.336918	0.585357	-0.61986	1.93081	-0.316756	-0.102377	1.73577	0.707697	0.0315052	-0.0994157	1.97805	-0.448634	0.0169105	1.74329	0.691664	0.158704	-0.0994723	-0.0113582	0.00284543	0.00256032	1.10618	-0.547849	0.794019	2.3674	1.96329	1.21742	-0.538043	0.98085	2.26414	2.10025
6.06	-0.782168	0.0128678	-0.0785295	-0.337248	0.585461	-0.619982	1.93114	-0.317556	-0.102522	1.73546	0.707512	0.0326566	-0.0994156	1.97824	-0.448657	0.01634	1.74284	0.69146	0.159219	-0.0994722	-0.0106523	0.00337031	0.00264133	1.10622	-0.547452	0.793653	2.36694	1.96324	1.21662	-0.538584	0.979957	2.26351	2.10145
6.07	-0.782092	0.012777	-0.0782852	-0.33758	0.585516	-0.620102	1.93142	-0.318408	-0.10262	1.73543	0.707432	0.0340484	-0.0994156	1.97844	-0.448736	0.0158548	1.7426	0.691299	0.159902	-0.0994722	-0.0101888	0.00391919	0.0026507	1.1063	-0.546776	0.793235	2.3665	1.96293	1.21558	-0.538954	0.978888	2.26298	2.10197
6.08	-0.781832	0.0126343	-0.0780049	-0.337914	0.585528	-0.620218	1.93164	-0.319282	-0.102655	1.73565	0.707431	0.0355776	-0.0994156	1.97861	-0.448856	0.0154418	1.74253	0.691173	0.16075	-0.0994721	-0.00998257	0.00447921	0.00259636	1.10637	-0.545779	0.792676	2.36605	1.96242	1.21429	-0.539153	0.977567	2.26254	2.10197
6.09	-0.781392	0.0124591	-0.0776837	-0.338252	0.585503	-0.620331	1.9318	-0.320145	-0.102611	1.73607	0.707472	0.037101	-0.0994155	1.97872	-0.449004	0.0150736	1.74262	0.691078	0.161739	-0.0994721	-0.0100356	0.00503247	0.00249244	1.10641	-0.544441	0.791883	2.36555	1.96174	1.21274	-0.53917	0.975935	2.26216	2.10159
6.1	-0.780785	0.0122733	-0.0773234	-0.338594	0.585447	-0.620439	1.9319	-0.320959	-0.10248	1.73663	0.707517	0.0384627	-0.0994155	1.97875	-0.449166	0.0147156	1.74283	0.69101	0.162815	-0.099472	-0.0103377	0.0055577	0.00236016	1.10637	-0.542769	0.79078	2.36499	1.96096	1.21091	-0.53898	0.97395	2.26184	2.10086
